<?xml version="1.0"?><mxGraphModel><root><mxCell id="0" /><mxCell id="1" parent="0" /><mxCell id="edge1" style="rounded=1;html=1;exitX=0.13;exitY=0.836;entryX=0.936;entryY=0.103;jettySize=auto;curved=0;endArrow=block;dashed=0;endFill=1;" parent="1" edge="1" source="node4" target="node5"><mxGeometry as="geometry" relative="1"><Array as="points"><mxPoint x="515.8" y="228.09" /><mxPoint x="283.0" y="270.0" /><mxPoint x="264.01" y="273.71" /></Array></mxGeometry></mxCell><mxCell id="edge2" style="rounded=1;html=1;exitX=0.236;exitY=0.926;entryX=0.91;entryY=0.0342;jettySize=auto;curved=0;endArrow=block;dashed=0;endFill=1;" parent="1" edge="1" source="node4" target="node6"><mxGeometry as="geometry" relative="1" /></mxCell><mxCell id="edge3" style="rounded=1;html=1;exitX=0.386;exitY=0.989;entryX=0.724;entryY=0;jettySize=auto;curved=0;endArrow=block;dashed=0;endFill=1;" parent="1" edge="1" source="node4" target="node7"><mxGeometry as="geometry" relative="1" /></mxCell><mxCell id="edge4" style="rounded=1;html=1;exitX=0.614;exitY=0.989;entryX=0.343;entryY=0;jettySize=auto;curved=0;endArrow=block;dashed=0;endFill=1;" parent="1" edge="1" source="node4" target="node8"><mxGeometry as="geometry" relative="1" /></mxCell><mxCell id="edge11" style="rounded=1;html=1;exitX=0.846;exitY=0.864;entryX=0.241;entryY=0.00444;jettySize=auto;curved=0;endArrow=block;dashed=0;endFill=1;" parent="1" edge="1" source="node4" target="node9"><mxGeometry as="geometry" relative="1" /></mxCell><mxCell id="edge6" style="rounded=1;html=1;exitX=0.797;exitY=0.905;entryX=0.198;entryY=0;jettySize=auto;curved=0;endArrow=block;dashed=0;endFill=1;" parent="1" edge="1" source="node5" target="node10"><mxGeometry as="geometry" relative="1" /></mxCell><mxCell id="edge7" style="rounded=1;html=1;exitX=0.635;exitY=0.989;entryX=0.37;entryY=0;jettySize=auto;curved=0;endArrow=block;dashed=0;endFill=1;" parent="1" edge="1" source="node6" target="node10"><mxGeometry as="geometry" relative="1" /></mxCell><mxCell id="edge8" style="rounded=1;html=1;exitX=0.364;exitY=0.989;entryX=0.63;entryY=0;jettySize=auto;curved=0;endArrow=block;dashed=0;endFill=1;" parent="1" edge="1" source="node7" target="node10"><mxGeometry as="geometry" relative="1" /></mxCell><mxCell id="edge9" style="rounded=1;html=1;exitX=0.23;exitY=0.921;entryX=0.817;entryY=0;jettySize=auto;curved=0;endArrow=block;dashed=0;endFill=1;" parent="1" edge="1" source="node8" target="node10"><mxGeometry as="geometry" relative="1" /></mxCell><mxCell id="edge5" style="rounded=1;html=1;exitX=0.292;exitY=0.0444;entryX=0.929;entryY=0.885;jettySize=auto;curved=0;endArrow=block;dashed=0;endFill=1;" parent="1" edge="1" source="node9" target="node4"><mxGeometry as="geometry" relative="1" /></mxCell><mxCell id="edge10" style="rounded=1;html=1;exitX=0.5;exitY=1;entryX=0.5;entryY=0;jettySize=auto;curved=0;endArrow=block;dashed=0;endFill=1;" parent="1" edge="1" source="node11" target="node4"><mxGeometry as="geometry" relative="1" /></mxCell><mxCell id="edge12" style="rounded=1;html=1;exitX=0.5;exitY=1;entryX=0.5;entryY=0;jettySize=auto;curved=0;endArrow=block;dashed=0;endFill=1;" parent="1" edge="1" source="node12" target="node11"><mxGeometry as="geometry" relative="1" /></mxCell><mxCell id="node1" value="&lt;p style='margin:0px;text-align:center;margin-top:4px;;font-size:10.0px;font-family:Times,serif;color:#000000;'&gt;Artists/Labels&lt;/p&gt;" style="ellipse;verticalAlign=top;align=left;overflow=fill;html=1;rounded=0;shadow=0;comic=0;labelBackgroundColor=none;strokeColor=#000000;strokeWidth=1;fillColor=#ffffff;" parent="1" vertex="1"><mxGeometry x="251.70999999999998" y="43.0" width="150.58" height="36.0" as="geometry" /></mxCell><mxCell id="node2" value="&lt;p style='margin:0px;text-align:center;margin-top:4px;;font-size:10.0px;font-family:Times,serif;color:#000000;'&gt;DJs&lt;/p&gt;" style="ellipse;verticalAlign=top;align=left;overflow=fill;html=1;rounded=0;shadow=0;comic=0;labelBackgroundColor=none;strokeColor=#000000;strokeWidth=1;fillColor=#ffffff;" parent="1" vertex="1"><mxGeometry x="180.0" y="43.0" width="54.0" height="36.0" as="geometry" /></mxCell><mxCell id="node3" value="&lt;p style='margin:0px;text-align:center;margin-top:4px;;font-size:10.0px;font-family:Times,serif;color:#000000;'&gt;Admin Users&lt;/p&gt;" style="ellipse;verticalAlign=top;align=left;overflow=fill;html=1;rounded=0;shadow=0;comic=0;labelBackgroundColor=none;strokeColor=#000000;strokeWidth=1;fillColor=#ffffff;" parent="1" vertex="1"><mxGeometry x="20.310000000000002" y="43.0" width="141.38" height="36.0" as="geometry" /></mxCell><mxCell id="node4" value="&lt;p style='margin:0px;text-align:center;margin-top:4px;;font-size:10.0px;font-family:Times,serif;color:#000000;'&gt;Next.js Web App&lt;/p&gt;" style="ellipse;verticalAlign=top;align=left;overflow=fill;html=1;rounded=0;shadow=0;comic=0;labelBackgroundColor=none;strokeColor=#000000;strokeWidth=1;fillColor=#ffffff;" parent="1" vertex="1"><mxGeometry x="493.01" y="198.0" width="175.98" height="36.0" as="geometry" /></mxCell><mxCell id="node5" value="&lt;p style='margin:0px;text-align:center;margin-top:4px;;font-size:10.0px;font-family:Times,serif;color:#000000;'&gt;Landing Page&lt;/p&gt;" style="ellipse;verticalAlign=top;align=left;overflow=fill;html=1;rounded=0;shadow=0;comic=0;labelBackgroundColor=none;strokeColor=#000000;strokeWidth=1;fillColor=#ffffff;" parent="1" vertex="1"><mxGeometry x="126.61" y="270.0" width="146.78" height="36.0" as="geometry" /></mxCell><mxCell id="node6" value="&lt;p style='margin:0px;text-align:center;margin-top:4px;;font-size:10.0px;font-family:Times,serif;color:#000000;'&gt;Chart Page&lt;/p&gt;" style="ellipse;verticalAlign=top;align=left;overflow=fill;html=1;rounded=0;shadow=0;comic=0;labelBackgroundColor=none;strokeColor=#000000;strokeWidth=1;fillColor=#ffffff;" parent="1" vertex="1"><mxGeometry x="291.71" y="270.0" width="124.58" height="36.0" as="geometry" /></mxCell><mxCell id="node7" value="&lt;p style='margin:0px;text-align:center;margin-top:4px;;font-size:10.0px;font-family:Times,serif;color:#000000;'&gt;Login Page&lt;/p&gt;" style="ellipse;verticalAlign=top;align=left;overflow=fill;html=1;rounded=0;shadow=0;comic=0;labelBackgroundColor=none;strokeColor=#000000;strokeWidth=1;fillColor=#ffffff;" parent="1" vertex="1"><mxGeometry x="434.01" y="270.0" width="123.98" height="36.0" as="geometry" /></mxCell><mxCell id="node8" value="&lt;p style='margin:0px;text-align:center;margin-top:4px;;font-size:10.0px;font-family:Times,serif;color:#000000;'&gt;Song Detail Page&lt;/p&gt;" style="ellipse;verticalAlign=top;align=left;overflow=fill;html=1;rounded=0;shadow=0;comic=0;labelBackgroundColor=none;strokeColor=#000000;strokeWidth=1;fillColor=#ffffff;" parent="1" vertex="1"><mxGeometry x="575.8199999999999" y="270.0" width="180.36" height="36.0" as="geometry" /></mxCell><mxCell id="node9" value="&lt;p style='margin:0px;text-align:center;margin-top:4px;;font-size:10.0px;font-family:Times,serif;color:#000000;'&gt;S3 Bucket for Songs and Static Assets&lt;/p&gt;" style="ellipse;verticalAlign=top;align=left;overflow=fill;html=1;rounded=0;shadow=0;comic=0;labelBackgroundColor=none;strokeColor=#000000;strokeWidth=1;fillColor=#ffffff;" parent="1" vertex="1"><mxGeometry x="774.53" y="270.0" width="376.94" height="36.0" as="geometry" /></mxCell><mxCell id="node10" value="&lt;p style='margin:0px;text-align:center;margin-top:4px;;font-size:10.0px;font-family:Times,serif;color:#000000;'&gt;Admin Dashboard&lt;/p&gt;" style="ellipse;verticalAlign=top;align=left;overflow=fill;html=1;rounded=0;shadow=0;comic=0;labelBackgroundColor=none;strokeColor=#000000;strokeWidth=1;fillColor=#ffffff;" parent="1" vertex="1"><mxGeometry x="331.32" y="342.0" width="187.36" height="36.0" as="geometry" /></mxCell><mxCell id="node11" value="&lt;p style='margin:0px;text-align:center;margin-top:4px;;font-size:10.0px;font-family:Times,serif;color:#000000;'&gt;MySQL Database&lt;/p&gt;" style="ellipse;verticalAlign=top;align=left;overflow=fill;html=1;rounded=0;shadow=0;comic=0;labelBackgroundColor=none;strokeColor=#000000;strokeWidth=1;fillColor=#ffffff;" parent="1" vertex="1"><mxGeometry x="490.02" y="115.0" width="181.96" height="36.0" as="geometry" /></mxCell><mxCell id="node12" value="&lt;p style='margin:0px;text-align:center;margin-top:4px;;font-size:10.0px;font-family:Times,serif;color:#000000;'&gt;Weekly Chart Classification Job&lt;/p&gt;" style="ellipse;verticalAlign=top;align=left;overflow=fill;html=1;rounded=0;shadow=0;comic=0;labelBackgroundColor=none;strokeColor=#000000;strokeWidth=1;fillColor=#ffffff;" parent="1" vertex="1"><mxGeometry x="425.83000000000004" y="43.0" width="310.34" height="36.0" as="geometry" /></mxCell></root></mxGraphModel>